# AST/ASF file generated using VICON BodyLanguage
# -----------------------------------------------
:version 1.10
:name VICON
:units
  mass 1.0
  length 0.45
  angle deg
:documentation
   .ast/.asf automatically generated from VICON data using
   VICON BodyBuilder and BodyLanguage model FoxedUp or BRILLIANT.MOD
:root
   order TX TY TZ RX RY RZ
   axis XYZ
   position 0 0 0  
   orientation 0 0 0 
:bonedata
  begin
     id 1 
     name lhipjoint
     direction 0.645422 -0.672597 0.361999 
     length 2.39934 
     axis 0 0 0  XYZ
  end
  begin
     id 2 
     name lfemur
     direction 0.34202 -0.939693 0  
     length 6.58112  
     axis 0 0 20  XYZ
    dof rx ry rz
    limits (-160.0 20.0)
           (-70.0 70.0)
           (-60.0 70.0)
  end
  begin
     id 3 
     name ltibia
     direction 0.34202 -0.939693 0   
     length 7.02673   
     axis 0 0 20   XYZ
    dof rx
    limits (-10.0 170.0)
  end
  begin
     id 4 
     name lfoot
     direction 0.0835106 -0.229444 0.969733   
     length 2.08772   
     axis -90 7.62852e-016 20   XYZ
    dof rx rz
    limits (-45.0 90.0)
           (-70.0 20.0)
  end
  begin
     id 5 
     name ltoes
     direction 1.5358e-011 -4.21925e-011 1   
     length 1.04844   
     axis -90 7.62852e-016 20   XYZ
    dof rx
    limits (-90.0 20.0)
  end
  begin
     id 6 
     name rhipjoint
     direction -0.644959 -0.672941 0.362185   
     length 2.39812  
     axis 0 0 0  XYZ 
  end
  begin
     id 7 
     name rfemur
     direction -0.34202 -0.939693 0   
     length 6.67015   
     axis 0 0 -20   XYZ
    dof rx ry rz
    limits (-160.0 20.0)
           (-70.0 70.0)
           (-70.0 60.0)
  end
  begin
     id 8 
     name rtibia
     direction -0.34202 -0.939693 0   
     length 7.35735   
     axis 0 0 -20   XYZ
    dof rx
    limits (-10.0 170.0)
 end
 begin
     id 9 
     name rfoot
     direction -0.0670769 -0.184292 0.98058   
     length 2.25469  
     axis -90 -7.62852e-016 -20   XYZ
    dof rx rz
    limits (-45.0 90.0)
           (-20.0 70.0)
  end
  begin
     id 10 
     name rtoes
     direction -1.53575e-011 -4.21908e-011 1   
     length 1.13399   
     axis -90 -7.62852e-016 -20   XYZ
    dof rx
    limits (-90.0 20.0)
  end
  begin
     id 11 
     name lowerback
     direction -0.0188328 0.993434 -0.112847   
     length 2.27656   
     axis 0 0 0   XYZ
    dof rx ry rz
    limits (-20.0 45.0)
           (-30.0 30.0)
           (-30.0 30.0)
  end
  begin
     id 12 
     name upperback
     direction 0.00983139 0.998968 -0.04435   
     length 2.28631   
     axis 0 0 0   XYZ
    dof rx ry rz
    limits (-20.0 45.0)
           (-30.0 30.0)
           (-30.0 30.0)
  end
  begin
     id 13 
     name thorax
     direction 0.0177718 0.999807 0.00833073   
     length 2.30999   
     axis 0 0 0   XYZ
    dof rx ry rz
    limits (-20.0 45.0)
           (-30.0 30.0)
           (-30.0 30.0)
  end
  begin
     id 14 
     name lowerneck
     direction -0.0835025 0.993181 0.0813558   
     length 1.39447   
     axis 0 0 0   XYZ
    dof rx ry rz
    limits (-20.0 45.0)
           (-30.0 30.0)
           (-30.0 30.0)
  end
  begin
     id 15 
     name upperneck
     direction 0.210059 0.976535 0.0474817   
     length 1.39882   
     axis 0 0 0   XYZ
    dof rx ry rz
    limits (-20.0 45.0)
           (-30.0 30.0)
           (-30.0 30.0)
  end
  begin
     id 16
     name head
     direction 0.0780891 0.996944 -0.00207154  
     length 1.41828  
     axis 0 0 0   XYZ
    dof rx ry rz
    limits (-20.0 45.0)
           (-30.0 30.0)
           (-30.0 30.0)
  end
  begin
     id 17 
     name lclavicle
     direction 0.982414 0.166355 -0.0847829  
     length 3.57922  
     axis 0 0 0   XYZ
    dof ry rz
    limits (-20.0 10.0)
           (0.0 20.0)
  end
  begin
     id 18 
     name lhumerus
     direction 1 -4.48975e-011 5.47647e-028   
     length 4.76405   
     axis -180 -30 -90   XYZ
    dof rx ry rz
    limits (-60.0 90.0)
           (-90.0 90.0)
           (-90.0 90.0)
  end
  begin
     id 19
     name lradius
     direction 1 -4.48949e-011 -8.32142e-027   
     length 3.13759   
     axis -180 -30 -90   XYZ
    dof rx
    limits (-10.0 170.0)
  end
  begin
     id 20
     name lwrist
     direction 1 -4.48978e-011 -1.32705e-026   
     length 1.56879   
     axis 9.60836e-015 90 90   XYZ
    dof ry
    limits (-180.0 0.0)
 end
  begin
     id 21 
     name lhand
     direction 1 -4.48975e-011 -2.65409e-026   
     length 0.732262   
     axis 1.69354e-014 90 90   XYZ
    dof rx rz
    limits (-90.0 90.0)
           (-45.0 45.0)
  end
  begin
     id 22 
     name lfingers
     direction 1 -4.48923e-011 -5.30819e-026   
     length 0.590368   
     axis 3.38708e-014 90 90   XYZ
    dof rx
    limits (0.0 90.0)
  end
  begin
     id 23
     name lthumb
     direction 0.707107 -6.34914e-011 0.707107   
     length 0.847654   
     axis -90 45 2.85299e-015   XYZ
    dof rx rz
    limits (-45.0 45.0)
           (-45.0 45.0)
  end
  begin
     id 24 
     name rclavicle
     direction -0.963658 0.245183 -0.106063   
     length 3.43472  
     axis 0 0 0   XYZ 
    dof ry rz
    limits (-10.0 20.0)
           (-20.0 0.0)
  end
  begin
     id 25 
     name rhumerus
     direction -1 -4.48963e-011 -1.64784e-027  
     length 5.10161   
     axis -180 30 90   XYZ
    dof rx ry rz
    limits (-90.0 60.0)
           (-90.0 90.0)
           (-90.0 90.0)
  end
  begin
     id 26 
     name rradius
     direction -1 -4.48969e-011 -2.87943e-027   
     length 3.23267   
     axis -180 30 90   XYZ
    dof rx
    limits (-10.0 170.0)
  end
  begin
     id 27 
     name rwrist
     direction -1 -4.48982e-011 -1.32705e-026   
     length 1.61633   
     axis 9.60836e-015 -90 -90   XYZ
    dof ry
    limits (-180.0 0.0)
  end
  begin
     id 28
     name rhand
     direction -1 -4.48963e-011 -2.65409e-026   
     length 0.702   
     axis 1.69354e-014 -90 -90   XYZ
    dof rx rz
    limits (-90.0 90.0)
           (-45.0 45.0)
  end
  begin
     id 29
     name rfingers
     direction -1 -4.48934e-011 -5.30819e-026   
     length 0.565971   
     axis 3.38708e-014 -90 -90   XYZ
    dof rx
    limits (0.0 90.0)
  end
  begin
     id 30
     name rthumb
     direction -0.707107 -6.34908e-011 0.707107   
     length 0.812624   
     axis -90 -45 -2.85299e-015   XYZ
    dof rx rz
    limits (-45.0 45.0)
           (-45.0 45.0)
  end
:hierarchy
  begin
    root lhipjoint rhipjoint lowerback
    lhipjoint lfemur
    lfemur ltibia
    ltibia lfoot
    lfoot ltoes
    rhipjoint rfemur
    rfemur rtibia
    rtibia rfoot
    rfoot rtoes
    lowerback upperback
    upperback thorax
    thorax lowerneck lclavicle rclavicle
    lowerneck upperneck
    upperneck head
    lclavicle lhumerus
    lhumerus lradius
    lradius lwrist
    lwrist lhand lthumb
    lhand lfingers
    rclavicle rhumerus
    rhumerus rradius
    rradius rwrist
    rwrist rhand rthumb
    rhand rfingers
  end

#!OML:ASF \\sashay\E\basketball\basketball\Project 1\Capture day 1\Session 1\Subject.ASF
:FULLY-SPECIFIED
:DEGREES
82
root -20.4946 13.2278 3.12781 22.7711 113.267 2.2613
lowerback 28.7909 2.78039 7.50986
upperback 10.4109 7.23267 4.77542
thorax -3.85115 4.09171 -1.268
lowerneck 0.63132 -14.6146 -10.0072
upperneck -34.362 -12.9806 29.6104
head -7.22662 -7.47943 12.7964
rclavicle -7.15625e-014 -9.22361e-014
rhumerus 4.16521 -5.11525 -92.5566
rradius 54.7906
rwrist 25.3799
rhand -38.8861 57.6556
rfingers 7.12502
rthumb -11.8938 28.0134
lclavicle -7.15625e-014 -9.22361e-014
lhumerus -23.1405 -5.74934 94.6994
lradius 79.5005
lwrist 15.1389
lhand -28.0405 19.1027
lfingers 7.12502
lthumb -1.42503 49.0777
rfemur 14.1669 -4.02231 1.57648
rtibia 17.6369
rfoot -4.61393 -28.9478
rtoes -51.2026
lfemur -78.9006 26.699 -15.63
ltibia 89.1353
lfoot -11.5117 -6.10035
ltoes -33.432
83
root -20.1571 13.2626 3.03274 21.7704 115.242 1.49063
lowerback 28.9931 2.87687 6.48125
upperback 10.5689 7.09614 4.3435
thorax -3.84589 4.03498 -1.13914
lowerneck 0.581879 -15.3779 -10.0595
upperneck -34.2275 -13.7446 31.3998
head -6.75263 -8.02635 13.346
rclavicle 5.725e-014 4.77083e-015
rhumerus 5.99186 -4.71878 -92.9785
rradius 49.9254
rwrist 17.2741
rhand -37.1815 58.0397
rfingers 7.12502
rthumb -10.2497 28.3094
lclavicle 5.725e-014 4.77083e-015
lhumerus -17.2353 -9.35387 94.9115
lradius 77.7104
lwrist 14.1108
lhand -27.5009 19.246
lfingers 7.12502
lthumb -0.903893 49.2238
rfemur 15.4436 -3.19479 3.29953
rtibia 19.4555
rfoot 0.64225 -29.0721
rtoes -50.9196
lfemur -78.6543 26.1854 -16.3416
ltibia 89.3884
lfoot -10.2878 -7.49473
ltoes -34.7516
84
root -19.8421 13.2901 2.91967 21.2619 117.463 0.900065
lowerback 29.0171 2.77814 5.95927
upperback 10.5606 6.82328 3.89479
thorax -3.8839 3.91018 -1.2609
lowerneck 0.667491 -16.0717 -10.2036
upperneck -33.8818 -14.5884 32.8811
head -6.23058 -8.5849 13.7542
rclavicle 1.41535e-013 1.43125e-014
rhumerus 6.94037 -3.68434 -93.1027
rradius 46.1522
rwrist 5.16018
rhand -36.432 52.278
rfingers 7.12502
rthumb -9.52659 22.5134
lclavicle 1.41535e-013 1.43125e-014
lhumerus -11.0887 -12.5698 94.7687
lradius 74.7344
lwrist 13.0239
lhand -26.1608 19.6946
lfingers 7.12502
lthumb 0.390431 49.674
rfemur 15.0604 -3.71662 4.75164
rtibia 23.8486
rfoot 6.5545 -26.9382
rtoes -49.7144
lfemur -78.3008 25.188 -16.7406
ltibia 89.8857
lfoot -8.48134 -8.56117
ltoes -34.2858
85
root -19.5249 13.3137 2.80411 20.738 119.575 0.276086
lowerback 29.0763 2.70076 5.30363
upperback 10.5578 6.54291 3.43127
thorax -3.94451 3.77898 -1.32323
lowerneck 0.798594 -16.5509 -10.3356
upperneck -33.2659 -15.258 34.0518
head -5.70809 -9.02504 14.0265
rclavicle -1.59028e-014 8.11041e-014
rhumerus 7.26492 -2.52174 -93.1911
rradius 43.9316
rwrist -7.70996
rhand -33.14 50.8388
rfingers 7.12502
rthumb -6.34933 20.954
lclavicle -1.59028e-014 8.11041e-014
lhumerus -5.02284 -15.4637 94.0968
lradius 71.3994
lwrist 12.4576
lhand -24.1626 20.1416
lfingers 7.12502
lthumb 2.32036 50.1087
rfemur 13.9385 -4.84957 5.90346
rtibia 29.568
rfoot 4.61736 -20.7306
rtoes -48.6996
lfemur -77.2971 24.0861 -16.7034
ltibia 90.4393
lfoot -6.29574 -9.43113
ltoes -34.2161
86
root -19.2439 13.3413 2.65917 21.594 121.077 0.23252
lowerback 28.5003 2.68842 4.91667
upperback 10.3762 6.3075 2.80597
thorax -3.85635 3.65605 -1.68355
lowerneck 0.946366 -16.9508 -10.1228
upperneck -32.924 -15.7808 34.8765
head -5.40411 -9.38887 14.1799
rclavicle 1.03368e-013 7.15625e-014
rhumerus 7.06254 -0.942738 -93.3173
rradius 42.8285
rwrist -16.9132
rhand -30.7197 56.2802
rfingers 7.12502
rthumb -4.01243 26.3382
lclavicle 1.03368e-013 7.15625e-014
lhumerus 1.0047 -17.51 93.1008
lradius 67.4836
lwrist 12.2404
lhand -22.2969 20.9871
lfingers 7.12502
lthumb 4.12204 50.927
rfemur 10.8219 -6.53746 6.64197
rtibia 36.043
rfoot 0.995882 -12.5887
rtoes -47.6102
lfemur -76.8414 23.0334 -16.705
ltibia 90.8368
lfoot -4.254 -9.67091
ltoes -34.8841
87
root -18.9222 13.3583 2.53468 20.8466 122.813 -0.619183
lowerback 28.7607 2.59268 3.64535
upperback 10.4483 5.88311 2.53643
thorax -4.01532 3.44415 -1.15619
lowerneck 1.40667 -17.2599 -10.5517
upperneck -32.8768 -16.147 36.1012
head -5.13567 -9.67488 14.6807
rclavicle -4.45278e-014 1.27222e-014
rhumerus 6.53223 -0.338624 -93.4114
rradius 42.2296
rwrist -16.541
rhand -30.6855 61.206
rfingers 7.12502
rthumb -3.97946 31.2634
lclavicle -4.45278e-014 1.27222e-014
lhumerus 6.57555 -18.3513 92.429
lradius 63.2087
lwrist 11.9277
lhand -20.7413 22.5131
lfingers 7.12502
lthumb 5.62416 52.4185
rfemur 8.66335 -8.38004 7.35141
rtibia 42.6486
rfoot -2.74394 -6.59432
rtoes -47.7001
lfemur -74.3306 21.9193 -16.2392
ltibia 90.7441
lfoot -4.57762 -10.409
ltoes -37.2586
